<svg xmlns="http://www.w3.org/2000/svg" width="138" height="44" viewBox="0 0 138 44" fill="none"><path d="M62.382 16.636C63.306 16.636 64.1273 16.8413 64.846 17.252C65.5647 17.648 66.122 18.242 66.518 19.034C66.9287 19.8113 67.134 20.75 67.134 21.85V29H64.054V22.268C64.054 21.3 63.812 20.5593 63.328 20.046C62.844 19.518 62.184 19.254 61.348 19.254C60.4973 19.254 59.8227 19.518 59.324 20.046C58.84 20.5593 58.598 21.3 58.598 22.268V29H55.518V12.72H58.598V18.33C58.994 17.802 59.522 17.3913 60.182 17.098C60.842 16.79 61.5753 16.636 62.382 16.636ZM75.9149 29.198C74.7416 29.198 73.6856 28.9413 72.7469 28.428C71.8083 27.9 71.0676 27.1593 70.5249 26.206C69.9969 25.2527 69.7329 24.1527 69.7329 22.906C69.7329 21.6593 70.0043 20.5593 70.5469 19.606C71.1043 18.6527 71.8596 17.9193 72.8129 17.406C73.7663 16.878 74.8296 16.614 76.0029 16.614C77.1763 16.614 78.2396 16.878 79.1929 17.406C80.1463 17.9193 80.8943 18.6527 81.4369 19.606C81.9943 20.5593 82.2729 21.6593 82.2729 22.906C82.2729 24.1527 81.9869 25.2527 81.4149 26.206C80.8576 27.1593 80.0949 27.9 79.1269 28.428C78.1736 28.9413 77.1029 29.198 75.9149 29.198ZM75.9149 26.514C76.4723 26.514 76.9929 26.382 77.4769 26.118C77.9756 25.8393 78.3716 25.4287 78.6649 24.886C78.9583 24.3433 79.1049 23.6833 79.1049 22.906C79.1049 21.7473 78.7969 20.86 78.1809 20.244C77.5796 19.6133 76.8389 19.298 75.9589 19.298C75.0789 19.298 74.3383 19.6133 73.7369 20.244C73.1503 20.86 72.8569 21.7473 72.8569 22.906C72.8569 24.0647 73.1429 24.9593 73.7149 25.59C74.3016 26.206 75.0349 26.514 75.9149 26.514ZM100.108 16.636C101.604 16.636 102.807 17.098 103.716 18.022C104.64 18.9313 105.102 20.2073 105.102 21.85V29H102.022V22.268C102.022 21.3147 101.78 20.5887 101.296 20.09C100.812 19.5767 100.152 19.32 99.3162 19.32C98.4802 19.32 97.8129 19.5767 97.3142 20.09C96.8302 20.5887 96.5882 21.3147 96.5882 22.268V29H93.5082V22.268C93.5082 21.3147 93.2662 20.5887 92.7822 20.09C92.2982 19.5767 91.6382 19.32 90.8022 19.32C89.9516 19.32 89.2769 19.5767 88.7782 20.09C88.2942 20.5887 88.0522 21.3147 88.0522 22.268V29H84.9722V16.812H88.0522V18.286C88.4482 17.7727 88.9542 17.3693 89.5702 17.076C90.2009 16.7827 90.8902 16.636 91.6382 16.636C92.5916 16.636 93.4422 16.8413 94.1902 17.252C94.9382 17.648 95.5176 18.22 95.9282 18.968C96.3242 18.264 96.8962 17.6993 97.6442 17.274C98.4069 16.8487 99.2282 16.636 100.108 16.636ZM119.795 22.642C119.795 23.082 119.766 23.478 119.707 23.83H110.797C110.87 24.71 111.178 25.3993 111.721 25.898C112.264 26.3967 112.931 26.646 113.723 26.646C114.867 26.646 115.681 26.1547 116.165 25.172H119.487C119.135 26.3453 118.46 27.3133 117.463 28.076C116.466 28.824 115.241 29.198 113.789 29.198C112.616 29.198 111.56 28.9413 110.621 28.428C109.697 27.9 108.971 27.1593 108.443 26.206C107.93 25.2527 107.673 24.1527 107.673 22.906C107.673 21.6447 107.93 20.5373 108.443 19.584C108.956 18.6307 109.675 17.8973 110.599 17.384C111.523 16.8707 112.586 16.614 113.789 16.614C114.948 16.614 115.982 16.8633 116.891 17.362C117.815 17.8607 118.526 18.572 119.025 19.496C119.538 20.4053 119.795 21.454 119.795 22.642ZM116.605 21.762C116.59 20.97 116.304 20.3393 115.747 19.87C115.19 19.386 114.508 19.144 113.701 19.144C112.938 19.144 112.293 19.3787 111.765 19.848C111.252 20.3027 110.936 20.9407 110.819 21.762H116.605ZM125.299 26.47H130.733V29H121.801V26.514L127.125 19.342H121.823V16.812H130.667V19.298L125.299 26.47Z" fill="white"></path><rect width="44" height="44" rx="20" fill="#EB6753"></rect><g clip-path="url(#clip0_5_169)"><path d="M32.7715 22.1168L31.6482 21.1411V30.3498C31.6482 31.8994 30.3875 33.1599 28.8381 33.1599H25.4622C25.7456 32.8695 26.0459 32.5469 26.348 32.1981C26.6128 31.8925 26.8596 31.5885 27.0892 31.2866H28.8379C29.3544 31.2866 29.7747 30.8663 29.7747 30.3498V19.5142L22 12.7625L14.2252 19.5142V30.3498C14.2252 30.8663 14.6454 31.2866 15.1619 31.2866H16.9108C17.1402 31.5883 17.387 31.8925 17.652 32.1981C17.9541 32.5467 18.2544 32.8695 18.5377 33.1599H15.1619C13.6125 33.1599 12.3518 31.8994 12.3518 30.3498V21.1411L11.2283 22.1168L10 20.7023L22 10.2812L34 20.7023L32.7715 22.1168ZM22 24.2099C21.224 24.2099 20.5948 24.8389 20.5948 25.6149C20.5948 26.3909 21.224 27.02 22 27.02C22.776 27.02 23.4052 26.3909 23.4052 25.6149C23.4052 24.8389 22.776 24.2099 22 24.2099ZM27.3849 25.899C27.3849 27.3862 26.5597 29.0926 24.9321 30.9713C23.7798 32.3013 22.6392 33.2343 22.5912 33.2733L22 33.7546L21.4086 33.2733C21.3606 33.2343 20.22 32.3013 19.0677 30.9713C17.4401 29.0926 16.6149 27.3862 16.6149 25.899V25.6185C16.6149 22.6491 19.0306 20.2334 22 20.2334C24.9692 20.2334 27.3849 22.6491 27.3849 25.6185V25.899ZM25.5116 25.6185C25.5116 23.6822 23.9362 22.1068 22 22.1068C20.0637 22.1068 18.4884 23.6822 18.4884 25.6185V25.8992C18.4884 26.8937 19.197 28.2595 20.4837 29.7446C21.0416 30.3886 21.6006 30.9333 22.0026 31.3032C23.3434 30.0737 25.5114 27.7052 25.5114 25.8992V25.6185H25.5116Z" fill="white"></path></g><defs><clipPath id="clip0_5_169"><rect width="24" height="24" fill="white" transform="translate(10 10)"></rect></clipPath></defs></svg>